<svg id="Capa_1" enable-background="new 0 0 497 497" height="512" viewBox="0 0 497 497" width="512" xmlns="http://www.w3.org/2000/svg"><g><g><path d="m440.511 313.91h-40.494v-73.893c0-17.267-14.047-31.315-31.315-31.315h-67.276c-17.267 0-31.315 14.048-31.315 31.315v73.893h-40.494v-73.893c0-39.596 32.213-71.809 71.808-71.809h67.276c39.595 0 71.808 32.213 71.808 71.809v73.893z" fill="#6a647f"/></g><path d="m221.384 329.545 24.717 136.117c3.295 18.146 19.098 31.338 37.54 31.338h102.847c18.443 0 34.245-13.192 37.54-31.338l24.717-136.117z" fill="#ff748f"/><path d="m463.898 414.038c-11.964-2.526-20.783-11.174-23.319-23.432-.885-4.278-4.678-7.33-9.159-7.33h-.588c-4.389 0-8.043 3.155-8.948 7.45-2.523 11.969-11.172 20.793-23.434 23.329-4.278.885-7.33 4.678-7.33 9.142v.493c0 4.383 3.078 8.161 7.37 9.054 12.237 2.546 20.869 11.359 23.392 23.31.908 4.299 4.557 7.46 9.065 7.46h.587c4.368 0 8.161-3.052 9.046-7.329 2.535-12.258 11.355-20.907 23.319-23.432 4.299-.907 7.46-4.558 7.46-8.951v-.813c-.001-4.393-3.163-8.043-7.461-8.951z" fill="#f9d888"/><g fill="#5c586f"><path d="m440.511 249.809c-3.3-.519-6.68-.795-10.124-.795h-30.37v64.896h40.494z"/><path d="m270.113 249.015h-30.371c-3.444 0-6.823.275-10.123.794v64.101h40.494z"/></g><path d="m284.083 329.545h-62.699l24.717 136.117c3.295 18.146 19.098 31.338 37.54 31.338h46.408c-29.816-44.876-44.1-106.396-45.966-167.455z" fill="#fd5f7e"/><path d="m430.388 279.014h-190.646c-19.273 0-34.896 15.624-34.896 34.896 0 19.273 15.624 34.896 34.896 34.896h190.645c19.273 0 34.896-15.624 34.896-34.896.001-19.272-15.623-34.896-34.895-34.896z" fill="#f9d888"/><path d="m141.404 0c-16.129 0-29.204 13.075-29.204 29.204v207.062h58.408v-207.062c0-16.129-13.075-29.204-29.204-29.204z" fill="#e8a882"/><path d="m170.608 187.538c-8.963-3.873-18.835-6.03-29.204-6.03s-20.241 2.157-29.204 6.03v48.728h58.408z" fill="#e3986d"/><path d="m97.527 255.385c0-24.232 19.644-43.877 43.877-43.877s43.877 19.644 43.877 43.877-19.644 33.753-43.877 33.753-43.877-9.521-43.877-33.753z" fill="#fccb88"/><path d="m283.862 315.657c0-12.487 1.058-24.725 3.061-36.643h-47.181c-19.273 0-34.896 15.624-34.896 34.896 0 19.273 15.624 34.896 34.896 34.896h45.342c-.817-11.04-1.222-22.123-1.222-33.149z" fill="#fccb88"/><path d="m256.222 448.174-23.947-109.517c-9.338-42.707-47.155-73.148-90.871-73.148-43.716 0-81.533 30.441-90.871 73.148l-23.946 109.517c-5.486 25.089 13.621 48.826 39.303 48.826h151.027c25.683 0 44.791-23.737 39.305-48.826z" fill="#f9d888"/><path d="m65.081 352.489c0-22.232 4.77-43.349 13.339-62.388-13.691 12.597-23.682 29.325-27.887 48.555l-23.946 109.518c-5.486 25.089 13.621 48.826 39.303 48.826h50.483c-34.923-32.635-51.292-89.449-51.292-144.511z" fill="#fccb88"/><path d="m252.953 400.046c-2.398-10.972-12.114-18.793-23.345-18.793h-176.407c-11.231 0-20.947 7.821-23.345 18.793-3.258 14.902 8.091 29 23.345 29h176.407c15.253 0 26.602-14.098 23.345-29z" fill="#ff748f"/><g><g><path d="m88.732 347.167c-4.142 0-7.5-3.358-7.5-7.5v-10.122c0-4.142 3.358-7.5 7.5-7.5s7.5 3.358 7.5 7.5v10.122c0 4.142-3.358 7.5-7.5 7.5z" fill="#423e4f"/></g><g><path d="m194.076 347.167c-4.143 0-7.5-3.358-7.5-7.5v-10.122c0-4.142 3.357-7.5 7.5-7.5s7.5 3.358 7.5 7.5v10.122c0 4.142-3.357 7.5-7.5 7.5z" fill="#423e4f"/></g><g><path d="m141.404 353.192c-7.489 0-14.611-3.243-19.541-8.898-2.721-3.123-2.396-7.86.727-10.582 3.122-2.722 7.859-2.397 10.582.726 2.079 2.386 5.08 3.754 8.232 3.754s6.153-1.368 8.232-3.754c2.722-3.124 7.46-3.448 10.582-.726 3.123 2.722 3.447 7.459.727 10.582-4.93 5.655-12.052 8.898-19.541 8.898z" fill="#423e4f"/></g></g><path d="m120.379 73.832c-11.964-2.526-20.783-11.174-23.319-23.432-.885-4.278-4.678-7.33-9.159-7.33h-.588c-4.389 0-8.043 3.155-8.948 7.45-2.524 11.969-11.173 20.793-23.435 23.329-4.278.885-7.33 4.678-7.33 9.142v.493c0 4.383 3.078 8.161 7.369 9.054 12.237 2.546 20.869 11.359 23.392 23.31.908 4.299 4.557 7.46 9.065 7.46h.587c4.368 0 8.161-3.052 9.046-7.329 2.535-12.258 11.355-20.907 23.319-23.432 4.299-.907 7.46-4.558 7.46-8.951v-.813c.001-4.393-3.161-8.044-7.459-8.951z" fill="#f9d888"/><path d="m66.585 381.253h-13.384c-11.231 0-20.947 7.821-23.345 18.793-3.258 14.902 8.091 29 23.345 29h23.099c-4.775-15.223-7.992-31.384-9.715-47.793z" fill="#fd5f7e"/><g fill="#fccb88"><path d="m71.08 64.879c-4.104 4.458-9.605 7.617-16.15 8.97-4.278.885-7.33 4.678-7.33 9.142v.493c0 4.384 3.078 8.162 7.37 9.055 12.237 2.546 20.869 11.359 23.392 23.31.908 4.299 4.557 7.46 9.065 7.46h.587c4.368 0 8.161-3.052 9.046-7.329.54-2.609 1.38-5.043 2.458-7.301-16.152-8.257-27.448-24.66-28.438-43.8z"/><path d="m414.599 405.085c-4.104 4.458-9.605 7.617-16.15 8.97-4.278.885-7.33 4.678-7.33 9.142v.493c0 4.384 3.078 8.162 7.37 9.055 12.237 2.546 20.869 11.359 23.392 23.31.908 4.299 4.557 7.46 9.065 7.46h.587c4.368 0 8.161-3.052 9.046-7.329.54-2.609 1.38-5.043 2.458-7.301-16.152-8.256-27.448-24.66-28.438-43.8z"/></g></g></svg>