<svg id="Capa_1" enable-background="new 0 0 497 497" height="512" viewBox="0 0 497 497" width="512" xmlns="http://www.w3.org/2000/svg"><g><path d="m283.128 0h-220.284c-20.786 0-37.637 16.851-37.637 37.638v165.144c0 20.787 16.851 37.638 37.638 37.638h220.283c20.787 0 37.638-16.851 37.638-37.638v-165.144c-.001-20.787-16.852-37.638-37.638-37.638z" fill="#ff748f"/><path d="m320.765 37.668c-45.187 0-81.818 36.631-81.818 81.818s36.631 81.818 81.818 81.818 81.818-36.631 81.818-81.818-36.631-81.818-81.818-81.818zm32.175 93.144c0 11.514-9.334 20.848-20.848 20.848h-22.653c-11.514 0-20.848-9.334-20.848-20.848v-22.652c0-11.514 9.334-20.848 20.848-20.848h22.653c11.514 0 20.848 9.334 20.848 20.848z" fill="#fccb88"/><path d="m57.355 80.956c0-28.59 5.464-55.902 15.397-80.956h-9.908c-20.786 0-37.637 16.851-37.637 37.638v165.145c0 20.787 16.851 37.638 37.638 37.638h63.066c-42.221-40.048-68.556-96.679-68.556-159.465z" fill="#fd5f7e"/><path d="m261.509 91.735c0-11.767 1.862-23.097 5.294-33.721-17.068 14.995-27.855 36.967-27.855 61.472 0 45.187 36.631 81.818 81.818 81.818 8.057 0 15.834-1.184 23.188-3.354-47.396-12.086-82.445-55.056-82.445-106.215z" fill="#fbc072"/><path d="m57.365 179.341h-19.599c-20.783 0-37.634 16.851-37.634 37.644v242.372c0 20.792 16.851 37.643 37.634 37.643h270.436c20.783 0 37.644-16.851 37.644-37.644v-242.371c0-20.793-16.861-37.644-37.644-37.644h-19.589l-115.627 33.265z" fill="#ff889e"/><path d="m67.442 311.262c0-43.641 11.664-84.555 32.036-119.805l-42.114-12.117h-19.598c-20.783 0-37.634 16.851-37.634 37.644v242.372c0 20.793 16.851 37.644 37.634 37.644h106.705c-51.209-43.97-77.029-110.839-77.029-185.738z" fill="#ff748f"/><g><path d="m107.516 179.341h-50.151c-.01.351-.01.702-.01 1.053 0 63.762 51.867 115.629 115.629 115.629s115.639-51.867 115.639-115.629c0-.351 0-.702-.01-1.053h-50.151l-65.476 33.265z" fill="#f9d888"/></g><path d="m238.472 180.394c0 36.099-29.379 65.478-65.488 65.478s-65.478-29.379-65.478-65.478c0-.351 0-.702.01-1.053h130.945c.011.351.011.702.011 1.053z" fill="#ff889e"/><path d="m415.05 299.026c-45.187 0-81.818 36.631-81.818 81.818s36.631 81.818 81.818 81.818 81.818-36.631 81.818-81.818-36.631-81.818-81.818-81.818zm32.174 93.144c0 11.514-9.334 20.848-20.848 20.848h-22.653c-11.514 0-20.848-9.334-20.848-20.848v-22.653c0-11.514 9.334-20.848 20.848-20.848h22.653c11.514 0 20.848 9.334 20.848 20.848z" fill="#fccb88"/><g><g><g><ellipse cx="82.123" cy="377.167" fill="#fff" rx="33.527" ry="26.699"/></g><g><ellipse cx="263.849" cy="377.167" fill="#fff" rx="33.527" ry="26.699"/></g></g></g><g><path d="m101.662 358.966c-4.142 0-7.5-3.358-7.5-7.5v-13.705c0-4.142 3.358-7.5 7.5-7.5s7.5 3.358 7.5 7.5v13.705c0 4.142-3.358 7.5-7.5 7.5z" fill="#423e4f"/></g><g><path d="m244.309 358.966c-4.142 0-7.5-3.358-7.5-7.5v-13.705c0-4.142 3.358-7.5 7.5-7.5s7.5 3.358 7.5 7.5v13.705c0 4.142-3.358 7.5-7.5 7.5z" fill="#423e4f"/></g><g><path d="m172.986 367.125c-9.375 0-18.289-4.06-24.458-11.139-2.721-3.123-2.396-7.86.727-10.582 3.122-2.721 7.86-2.396 10.582.727 3.32 3.809 8.113 5.994 13.15 5.994s9.83-2.185 13.15-5.994c2.721-3.123 7.459-3.448 10.582-.727s3.448 7.459.727 10.582c-6.171 7.079-15.086 11.139-24.46 11.139z" fill="#423e4f"/></g><path d="m106.984 179.341h-49.619c-.01.352-.01.702-.01 1.053 0 23.729 7.187 45.808 19.494 64.182 6.767-23.419 17.013-45.359 30.135-65.235z" fill="#fccb88"/><path d="m355.793 353.093c0-11.767 1.862-23.097 5.294-33.721-17.068 14.995-27.855 36.967-27.855 61.472 0 45.187 36.631 81.818 81.818 81.818 8.057 0 15.834-1.184 23.188-3.354-47.396-12.086-82.445-55.056-82.445-106.215z" fill="#fbc072"/></g></svg>