<svg id="Capa_1" enable-background="new 0 0 512 512" height="512" viewBox="0 0 512 512" width="512" xmlns="http://www.w3.org/2000/svg"><g><path d="m292.832 135.94-46.793-46.793 79.456-79.456c12.922-12.922 33.872-12.922 46.793 0 12.922 12.922 12.922 33.872 0 46.793z" fill="#565e75"/><path d="m204.855 225.285h-80.696v-126.888c0-22.284 18.064-40.348 40.348-40.348 22.284 0 40.348 18.065 40.348 40.348z" fill="#565e75"/><path d="m204.855 98.397c0-3.207-.386-6.323-1.093-9.315-34.507 33.968-61.593 62.072-79.604 84.834v51.368h80.696v-126.887z" fill="#3a4351"/><g fill="#565e75"><path d="m339.625 182.734-46.793-46.793 108.893-108.894c12.922-12.922 33.872-12.922 46.793 0 12.922 12.922 12.922 33.872 0 46.793z"/><path d="m386.418 229.527-46.793-46.793 95.069-95.069c12.922-12.922 33.872-12.922 46.793 0 12.922 12.922 12.922 33.872 0 46.793z"/><path d="m433.212 276.321-46.793-46.793 58.971-58.971c12.922-12.922 33.872-12.922 46.793 0 12.922 12.922 12.922 33.872 0 46.793z"/></g><path d="m292.832 143.44c-1.919 0-3.839-.732-5.304-2.197-2.929-2.929-2.929-7.678 0-10.606l79.455-79.456c2.93-2.929 7.678-2.929 10.607 0s2.929 7.678 0 10.606l-79.455 79.456c-1.464 1.465-3.384 2.197-5.303 2.197z" fill="#3a4351"/><path d="m339.625 190.234c-1.919 0-3.839-.732-5.304-2.197-2.929-2.929-2.929-7.678 0-10.606l95.069-95.07c2.93-2.929 7.678-2.929 10.607 0s2.929 7.678 0 10.606l-95.069 95.07c-1.464 1.464-3.384 2.197-5.303 2.197z" fill="#3a4351"/><path d="m386.418 237.027c-1.92 0-3.839-.732-5.304-2.197-2.929-2.929-2.929-7.678 0-10.606l58.972-58.971c2.931-2.93 7.679-2.929 10.607 0 2.929 2.929 2.929 7.678 0 10.606l-58.972 58.971c-1.464 1.465-3.384 2.197-5.303 2.197z" fill="#3a4351"/><path d="m129.436 220.294c12.341-31.837 92.416-106.96 116.602-131.147 29.663 17.129 67.76 44.665 105.134 82.039s64.91 75.47 82.039 105.134c-24.186 24.187-99.31 104.262-131.147 116.602z" fill="#b0ade2"/><g><g fill="#fff"><ellipse cx="224.969" cy="181.669" rx="24.082" ry="30.241" transform="matrix(.707 -.707 .707 .707 -62.567 212.287)"/><ellipse cx="340.874" cy="297.574" rx="24.082" ry="30.241" transform="matrix(.707 -.707 .707 .707 -110.577 328.19)"/></g><g fill="#565e75"><path d="m253.823 185.238c-1.919 0-3.839-.732-5.304-2.197-2.929-2.929-2.929-7.678 0-10.606l8.741-8.741c2.93-2.929 7.678-2.929 10.608 0 2.929 2.929 2.929 7.678 0 10.606l-8.741 8.741c-1.465 1.465-3.385 2.197-5.304 2.197z"/><path d="m344.805 276.22c-1.919 0-3.839-.732-5.304-2.197-2.929-2.929-2.929-7.678 0-10.606l8.741-8.741c2.93-2.929 7.678-2.929 10.607 0s2.929 7.678 0 10.606l-8.741 8.741c-1.464 1.464-3.384 2.197-5.303 2.197z"/><path d="m310.019 242.516c-7.935 0-15.57-3.138-21.212-8.78-6.13-6.13-9.304-14.613-8.708-23.275.285-4.132 3.843-7.239 7.997-6.968 4.132.284 7.252 3.865 6.968 7.997-.298 4.334 1.287 8.576 4.351 11.639 3.063 3.064 7.311 4.654 11.64 4.351 4.135-.278 7.713 2.836 7.996 6.969s-2.837 7.712-6.969 7.996c-.69.047-1.378.071-2.063.071z"/></g></g><path d="m254.308 374.533 20.454 53.643c-9.683 23.724-26.704 48.789-40.466 67.269-12.706 17.063-36.257 21.587-54.425 10.519-26.513-16.152-62.358-43.187-91.44-72.269s-56.117-64.926-72.269-91.44c-11.068-18.168-6.544-41.719 10.519-54.425 18.48-13.762 43.545-30.782 67.269-40.466l53.643 20.454z" fill="#b0ade2"/><path d="m147.594 267.818-53.643-20.454c-15.096 6.162-30.729 15.295-44.869 24.669 3.91 6.396 9.441 11.984 16.548 16.075 22.011 12.671 59.92 39.674 94.318 74.071 34.396 34.397 61.399 72.306 74.07 94.316 4.082 7.092 9.674 12.625 16.081 16.542 9.372-14.138 18.503-29.768 24.664-44.861l-20.454-53.643z" fill="#908cd6"/><path d="m309.815 372.066c-14.578-24.451-40.565-59.161-70.58-89.176-12.053-12.053-24.863-23.454-37.462-33.73-45.268-1.797-53.933 44.91-1.844 112.098 25.832 28.762 47.389 58.846 59.814 80.428 5.811 10.094 19.743 11.591 27.572 2.967 7.452-8.208 15.342-18.241 21.563-27.598 8.994-13.527 9.256-31.036.937-44.989z" fill="#cde9fa"/><path d="m201.773 249.161c-18.775-15.314-37.081-28.126-51.714-36.85-13.953-8.318-31.462-8.057-44.989.937-9.357 6.221-19.39 14.111-27.598 21.563-8.624 7.829-7.127 21.761 2.967 27.572 26.689 15.365 66.383 44.693 100.496 78.807 6.529 6.529 12.88 13.262 18.994 20.069-20.632-40.253-18.509-95.912 1.844-112.098z" fill="#a2ddfd"/><path d="m155.507 418.53c-1.919 0-3.839-.732-5.304-2.197l-44.41-44.41c-2.929-2.929-2.929-7.678 0-10.607 2.93-2.929 7.678-2.929 10.607 0l44.41 44.41c2.929 2.929 2.929 7.678 0 10.606-1.464 1.465-3.384 2.198-5.303 2.198z" fill="#fbf1cf"/></g></svg>