<svg id="Capa_1" enable-background="new 0 0 497 497" height="512" viewBox="0 0 497 497" width="512" xmlns="http://www.w3.org/2000/svg"><g><g><path d="m443.244 297.262h-59.416v-102.291c0-74.746-60.81-135.555-135.555-135.555-74.746 0-135.556 60.81-135.556 135.555v102.291h-59.416v-102.291c0-107.507 87.464-194.971 194.972-194.971 107.507 0 194.971 87.464 194.971 194.971z" fill="#f1c6ad"/></g><path d="m249.509 170.518c11.802-17.909 30.36-28.686 50.09-31.188 11.723-1.487 22.803 5.815 26.061 17.174 5.482 19.117 2.899 40.422-8.903 58.331-15.48 23.49-42.585 34.71-68.709 31.083-13.639-22.577-14.019-51.91 1.461-75.4z" fill="#9bd981"/><path d="m247.037 170.518c-11.802-17.909-30.36-28.686-50.09-31.188-11.723-1.487-22.803 5.815-26.061 17.174-5.482 19.117-2.899 40.422 8.903 58.331 15.48 23.49 42.585 34.71 68.709 31.083 13.638-22.577 14.019-51.91-1.461-75.4z" fill="#bae4a7"/><path d="m53.336 192.253c-.012.906-.034 1.81-.034 2.718v102.291h59.416v-102.291c0-10.882 1.297-21.465 3.731-31.611-24.068 3.076-45.873 13.482-63.113 28.893z" fill="#e8a882"/><circle cx="131.404" cy="279.682" fill="#fbc072" r="87.272"/><path d="m383.828 194.971v102.291h59.416v-102.291c0-.909-.022-1.813-.035-2.719-17.24-15.411-39.045-25.816-63.112-28.893 2.434 10.147 3.731 20.73 3.731 31.612z" fill="#e8a882"/><circle cx="365.142" cy="279.682" fill="#fbc072" r="87.272"/><path d="m192.435 144.144c0-1.664.042-3.317.107-4.965-9.996.579-18.81 7.402-21.655 17.323-5.482 19.118-2.899 40.422 8.903 58.331 14.793 22.448 40.202 33.68 65.227 31.468-31.833-22.766-52.582-60.037-52.582-102.157z" fill="#9bd981"/><path d="m365.544 289.584c0-34.937-15.362-66.35-39.68-87.853-28.469 14.374-47.994 43.88-47.994 77.95 0 39.29 25.965 72.512 61.67 83.453 16.255-20.131 26.004-45.721 26.004-73.55z" fill="#fab659"/><circle cx="248.273" cy="289.584" fill="#fbc072" r="87.272"/><path d="m32.977 338.385s-.24 16.542 4.632 40.495c14 68.831 74.813 118.12 145.053 118.12h131.222c70.24 0 131.052-49.289 145.053-118.12 4.872-23.954 4.632-40.495 4.632-40.495z" fill="#e8a882"/><g><g><g><ellipse cx="158.166" cy="445.991" fill="#fff" rx="33.248" ry="26.477"/></g><g><ellipse cx="338.379" cy="445.991" fill="#fff" rx="33.248" ry="26.477"/></g></g></g><g><path d="m177.542 428.003c-4.143 0-7.5-3.358-7.5-7.5v-13.591c0-4.142 3.357-7.5 7.5-7.5s7.5 3.358 7.5 7.5v13.591c0 4.142-3.357 7.5-7.5 7.5z" fill="#423e4f"/></g><g><path d="m319.003 428.003c-4.143 0-7.5-3.358-7.5-7.5v-13.591c0-4.142 3.357-7.5 7.5-7.5s7.5 3.358 7.5 7.5v13.591c0 4.142-3.357 7.5-7.5 7.5z" fill="#423e4f"/></g><g><path d="m248.273 436.094c-9.314 0-18.172-4.034-24.302-11.068-2.722-3.123-2.396-7.86.727-10.582 3.122-2.721 7.859-2.396 10.582.727 3.28 3.764 8.016 5.923 12.993 5.923s9.713-2.159 12.993-5.923c2.72-3.123 7.457-3.448 10.582-.727 3.122 2.721 3.448 7.459.727 10.582-6.13 7.034-14.988 11.068-24.302 11.068z" fill="#423e4f"/></g><path d="m211.042 226.466c0-5.525.35-10.969 1.027-16.31-30.129 13.755-51.069 44.145-51.069 79.428 0 48.199 39.073 87.272 87.272 87.272 24.055 0 45.836-9.733 61.622-25.475-56.664-13.316-98.852-64.187-98.852-124.915z" fill="#fab659"/><path d="m84.914 338.385h-51.937s-.24 16.542 4.632 40.496c9.468 46.549 40.35 84.155 81.076 103.628-23.267-40.507-33.109-90.231-33.771-144.124z" fill="#e3986d"/><path d="m477.533 286.62-6.417-8.895c-7.854-10.887-22.428-14.542-34.457-8.583-48.67 24.11-126.353 35.052-188.382 35.052-61.757 0-139.251-10.899-188.048-34.915-12.063-5.937-26.65-2.224-34.467 8.715l-6.387 8.938c-12.594 17.624-6.075 42.396 13.602 51.454 54.662 25.162 132.895 40.078 215.3 40.078 82.776 0 161.191-14.998 215.826-40.299 19.682-9.116 26.121-33.956 13.43-51.545z" fill="#f1c6ad"/><path d="m84.874 332.484c0-51.758 15.551-99.878 42.217-139.968-46.195 2.249-82.959 40.413-82.959 87.165 0 31.302 16.483 58.749 41.238 74.15-.327-7.039-.496-14.155-.496-21.347z" fill="#fab659"/><path d="m84.874 332.484c0-17.536 1.786-34.655 5.182-51.187-10.739-3.565-20.778-7.566-29.827-12.019-12.064-5.938-26.65-2.224-34.467 8.715l-6.387 8.938c-12.594 17.625-6.075 42.396 13.602 51.454 15.725 7.238 33.409 13.623 52.573 19.055-.452-8.211-.676-16.534-.676-24.956z" fill="#edb798"/></g></svg>