<svg id="Capa_1" enable-background="new 0 0 497 497" height="512" viewBox="0 0 497 497" width="512" xmlns="http://www.w3.org/2000/svg"><g><path d="m441.817 361.83-53.532-208.171c-5.149-20.023-23.2-34.019-43.874-34.019h-191.822c-20.674 0-38.725 13.997-43.874 34.019l-53.532 208.171c-5.321 20.691-2.226 42.647 8.606 61.061l20.173 34.295c14.51 24.668 40.992 39.814 69.611 39.814h189.855c28.619 0 55.1-15.146 69.611-39.814l20.173-34.295c10.832-18.414 13.926-40.37 8.605-61.061z" fill="#ff748f"/><path d="m109.755 296.507c0-62.927 21.957-126.941 59.186-176.867h-16.352c-20.674 0-38.725 13.997-43.874 34.019l-53.532 208.171c-5.321 20.691-2.226 42.647 8.606 61.061l20.173 34.295c14.51 24.668 40.992 39.814 69.611 39.814h43.284c-56.179-42.994-87.102-116.73-87.102-200.493z" fill="#fd5f7e"/><g><path d="m317.407 190.356c-12.528 0-22.683-10.156-22.683-22.683v-76.082c0-25.488-20.736-46.224-46.223-46.224-25.488 0-46.224 20.736-46.224 46.224v76.082c0 12.528-10.156 22.683-22.683 22.683-12.528 0-22.683-10.156-22.683-22.683v-76.082c-.002-50.503 41.086-91.591 91.589-91.591s91.59 41.088 91.59 91.591v76.082c0 12.527-10.155 22.683-22.683 22.683z" fill="#6a647f"/></g><g fill="#f9d888"><path d="m243.196 276.161-36.856 36.856c-2.929 2.929-2.929 7.678 0 10.606l36.856 36.856c2.929 2.929 7.678 2.929 10.606 0l36.856-36.856c2.929-2.929 2.929-7.678 0-10.606l-36.856-36.856c-2.928-2.929-7.677-2.929-10.606 0zm31.554 42.159-26.25 26.25-26.25-26.25 26.25-26.25z"/><path d="m386.576 304.633-12.276-12.277c-7.546-7.545-19.826-7.546-27.374 0l-15.357 15.357-72.463-72.463 15.358-15.357c7.546-7.547 7.546-19.827 0-27.374l-12.277-12.276c-7.547-7.547-19.827-7.547-27.374 0l-12.276 12.276c-7.547 7.547-7.547 19.827 0 27.374l15.357 15.357-72.463 72.463-15.357-15.357c-7.548-7.546-19.827-7.546-27.374 0l-12.277 12.277c-7.547 7.547-7.547 19.827 0 27.374l12.276 12.276c7.564 7.564 19.809 7.566 27.374 0l15.357-15.357 72.463 72.463-15.357 15.357c-7.564 7.563-7.566 19.808 0 27.374l12.276 12.277c7.547 7.547 19.827 7.547 27.374 0l12.277-12.277c7.547-7.546 7.547-19.826 0-27.374l-15.357-15.357 72.463-72.463 15.357 15.357c7.547 7.547 19.827 7.547 27.374 0l12.276-12.276c7.548-7.547 7.548-19.827 0-27.374zm-153.433-101.507 12.276-12.276c1.699-1.698 4.462-1.699 6.161 0l12.277 12.276c1.698 1.699 1.698 4.463 0 6.161l-15.357 15.357-15.357-15.357c-1.699-1.698-1.699-4.462 0-6.161zm-93.676 130.551c-1.702 1.702-4.458 1.703-6.161 0l-12.277-12.276c-1.699-1.699-1.699-4.462 0-6.161l12.277-12.277c1.698-1.698 4.461-1.698 6.161 0l15.357 15.357zm124.39 99.837-12.277 12.276c-1.699 1.698-4.463 1.698-6.161 0l-12.276-12.277c-1.702-1.701-1.703-4.458 0-6.16l15.357-15.357 15.357 15.357c1.698 1.699 1.698 4.462 0 6.161zm-15.357-42.731-72.463-72.463 72.463-72.463 72.463 72.463zm127.47-69.382-12.276 12.276c-1.699 1.698-4.462 1.698-6.161 0l-15.357-15.357 15.357-15.357c1.698-1.699 4.463-1.699 6.161 0l12.276 12.277c1.699 1.698 1.699 4.462 0 6.161z"/></g><g><path d="m184.051 26.578c-16.75 16.606-27.142 39.618-27.142 65.012v76.082c0 12.528 10.156 22.684 22.683 22.684s22.683-10.156 22.683-22.684v-76.081c0-2.694.245-5.331.689-7.9-10.691-16.707-17.43-36.183-18.913-57.113z" fill="#5c586f"/></g></g></svg>